<mxfile host="app.diagrams.net" modified="2021-11-02T07:04:21.027Z" agent="5.0 (Windows NT 10.0; Win64; x64) AppleWebKit/537.36 (KHTML, like Gecko) Chrome/95.0.4638.54 Safari/537.36 Edg/95.0.1020.40" etag="7OSW1JIQKKcNLZ0CL_Qb" version="15.6.5" type="github">
  <diagram id="kgpKYQtTHZ0yAKxKKP6v" name="Page-1">
    <mxGraphModel dx="554" dy="456" grid="1" gridSize="10" guides="1" tooltips="1" connect="1" arrows="1" fold="1" page="1" pageScale="1" pageWidth="850" pageHeight="1100" math="0" shadow="0">
      <root>
        <mxCell id="0" />
        <mxCell id="1" parent="0" />
        <mxCell id="3nuBFxr9cyL0pnOWT2aG-1" value="Controller" style="shape=umlLifeline;perimeter=lifelinePerimeter;container=1;collapsible=0;recursiveResize=0;rounded=0;shadow=0;strokeWidth=1;fontColor=default;" parent="1" vertex="1">
          <mxGeometry x="120" y="80" width="100" height="300" as="geometry" />
        </mxCell>
        <mxCell id="xSMPxIjG9MjmwalpSGuS-8" value="" style="html=1;points=[];perimeter=orthogonalPerimeter;fontColor=default;strokeColor=default;fillColor=default;" vertex="1" parent="3nuBFxr9cyL0pnOWT2aG-1">
          <mxGeometry x="45" y="70" width="10" height="80" as="geometry" />
        </mxCell>
        <mxCell id="3nuBFxr9cyL0pnOWT2aG-5" value="Vehicle" style="shape=umlLifeline;perimeter=lifelinePerimeter;container=1;collapsible=0;recursiveResize=0;rounded=0;shadow=0;strokeWidth=1;fontColor=default;" parent="1" vertex="1">
          <mxGeometry x="300" y="80" width="100" height="300" as="geometry" />
        </mxCell>
        <mxCell id="xSMPxIjG9MjmwalpSGuS-5" value="" style="html=1;points=[];perimeter=orthogonalPerimeter;fontColor=default;strokeColor=default;fillColor=default;" vertex="1" parent="3nuBFxr9cyL0pnOWT2aG-5">
          <mxGeometry x="45" y="70" width="10" height="80" as="geometry" />
        </mxCell>
        <mxCell id="xSMPxIjG9MjmwalpSGuS-6" value="Request Key" style="html=1;verticalAlign=bottom;endArrow=block;entryX=0;entryY=0;rounded=0;labelBackgroundColor=default;fontColor=default;strokeColor=default;fillColor=default;" edge="1" target="xSMPxIjG9MjmwalpSGuS-5" parent="1">
          <mxGeometry relative="1" as="geometry">
            <mxPoint x="180" y="150" as="sourcePoint" />
          </mxGeometry>
        </mxCell>
        <mxCell id="xSMPxIjG9MjmwalpSGuS-7" value="return" style="html=1;verticalAlign=bottom;endArrow=open;dashed=1;endSize=8;exitX=0;exitY=0.95;rounded=0;labelBackgroundColor=default;fontColor=default;strokeColor=default;fillColor=default;" edge="1" source="xSMPxIjG9MjmwalpSGuS-5" parent="1">
          <mxGeometry relative="1" as="geometry">
            <mxPoint x="180" y="226" as="targetPoint" />
          </mxGeometry>
        </mxCell>
      </root>
    </mxGraphModel>
  </diagram>
</mxfile>
